<?xml version="1.0" encoding="UTF-8"?>
<svg id="Layer_1" xmlns="http://www.w3.org/2000/svg" version="1.1" viewBox="0 0 1975 522.1">
  <!-- Generator: Adobe Illustrator 29.6.1, SVG Export Plug-In . SVG Version: 2.1.1 Build 9)  -->
  <defs>
    <style>
      .st0 {
        fill: #e2e2e2;
      }
    </style>
  </defs>
  <path class="st0" d="M917.5,39.6v223.8h141.1c1.6.9,2.4,1.7,2.4,2.4v50.8c-.8,1.6-1.6,2.4-2.4,2.4h-196.9c-1.6-.8-2.4-1.6-2.4-2.4V39.6c.8-1.6,1.6-2.4,2.4-2.4h53.6c1.5.8,2.2,1.6,2.2,2.4Z"/>
  <path class="st0" d="M1193.8,34.5h49c3.8,0,7.8,6.8,12.1,20.5,1.5,2.4,38.5,88.8,110.8,259.3-.4,2.1-2.4,3.2-6.1,3.2h-47.5c-4.2,0-8.7-8.1-13.6-24.4-9.1-20.5-35.7-84.1-80-190.8h-.8c-43.2,105-73.4,176.5-90.4,214.5l-3.8.8h-46.7c-2.8,0-4.8-.8-6.1-2.4,64.3-152.4,104-245.6,119.1-279.8l3.8-.8Z"/>
  <path class="st0" d="M841.1,237.3c-7.1-46.7-21.7-48.1-45-66.4,14.2-16.5,31.3-34,31.3-54.2,0-36.3-20-61.5-59.9-75.6-11.8-3.5-24.2-5.3-37.2-5.3h-10.8c-.5-.2-.9-.3-.9-.3l-115.5-1c-1.6.8-2.4,1.6-2.4,2.4v278.2c.8,1.6,1.6,2.4,2.4,2.4h53.6c.4-.2.7-.4.9-.6.3.2.6.4,1,.6h78c51.1,0,84.2-18.1,99.5-54.2,2.2-5.6,6.6-14.3,4.9-25.9ZM658.9,89.6l56.2.2c0,0,.2.1.3.2h17.9c18.9,0,30.6,6.9,35.2,20.6v14.5c-3.2,16.3-14.1,24.4-32.8,24.4h-76.9v-60ZM783.5,237.4c-3.1,16.4-15.2,24.6-36.4,24.6h-88.2v-59.6h77.2c23,0,37.7,5.7,44.1,17.3,2.2,4.9,3.2,8.5,3.2,10.7v7Z"/>
  <path class="st0" d="M656.9,379.6l-.9,1.5h1.1c0-.5-.2-1-.2-1.5Z"/>
  <g>
    <g>
      <path class="st0" d="M606,358.1c-.4,0-.8.4-1.2,1.1v1.4c0-1.4,1-2.6,2.2-2.6h-1Z"/>
      <path class="st0" d="M670.5,358.5c-6.5-1-10.5-1.5-12.1-1.5,0,.1-.3.5-.8,1.1h-50.6c-1.2,0-2.2,1.1-2.2,2.6v129c0,.4.4.7,1.2,1.1h26.1c.3,0,.7-.3,1.1-1.1v-40.9h21.6c25.2,0,42-9.9,50.3-29.8,1.3-4.4,2.2-9.7,2.7-16.1,0-22.7-12.5-37.5-37.4-44.5ZM679.2,403.6c0,13-8.1,19.5-24.4,19.5h-21.6v-39.3h26.2c.5,0,.9-.2,1.3-.5,1.7.5,4,1,7.1,1.6,7.6,3.1,11.4,9,11.4,17.7v1Z"/>
    </g>
    <path class="st0" d="M820.1,490.8h-30.8c-1-.3-4.1-4.7-9.1-13.3-22.8-37.5-34.4-56.8-34.6-58v-.5h19c16.2,0,24.4-5.6,24.4-16.9v-1c0-2.9-.8-5.7-2.4-8.3-3.9-6-11.2-9-22-9h-20.3v104c0,.5-.4,1.1-1.2,1.6h-27.4c-.4,0-.8-.5-1.2-1.6v-128.1c0-.5.4-1.1,1.2-1.6h50.6c4.4,0,9.8.6,16.1,1.9,22.6,7,33.9,21.3,33.9,42.7s-1.7,12.9-5,20.3c-5.3,8.3-12.7,13.9-22.4,17v.7c20.8,32.7,31.2,49.4,31.2,50.2Z"/>
    <path class="st0" d="M900.6,464c-1.8.7-5.3,1-10.5,1h-.4c-6.5,0-12.4-.9-17.7-2.8-16.6-7.3-24.8-19.1-24.8-35.6v-4.5c0-5.1,1-10.3,3-15.4-10.8-12.4-17-19.1-18.4-20.2h-.4c-7.8,11.4-11.7,23.8-11.7,37.3s1.9,19,5.6,27.9c13.8,25.6,35.3,38.4,64.4,38.4s20.9-1.9,29.8-5.6c-10.8-12.6-17.1-19.5-18.9-20.6Z"/>
    <path class="st0" d="M890.3,383.5c5.3,0,10.4.6,15.2,1.8,18.9,7.1,28.3,19.4,28.3,36.9v4.5c0,4.3-.9,9.4-2.7,15.2v.4c11.1,12.4,17,19.1,17.6,20h.8c8.4-10.6,12.6-23.2,12.6-38s-3.1-22.5-9.2-33.1c-14.5-22-35.1-33.1-61.8-33.1s-21.2,1.8-29.8,5.3h-.4c0,.6,6,7.5,18,20.8,5.9-.5,9.7-.7,11.4-.7Z"/>
    <path class="st0" d="M1050.8,363.5c-9.6-3.6-18.8-5.4-27.6-5.4h-46.3c-.8.5-1.1,1.1-1.1,1.6v129.4c.4,1.1.8,1.6,1.1,1.6h46.3c26.4,0,46.4-12.2,60.1-36.7,4.4-10.1,6.6-20.1,6.6-29.8,0-27-13.1-47.3-39.2-60.8ZM1061.1,427.7c0,14.7-7.2,26.1-21.7,34.1-4.6,2.2-10.1,3.2-16.6,3.2h-18.5v-81.2h18.1c19.4,0,32,10,37.9,29.8.5,3,.8,5.6.8,7.6v6.5Z"/>
    <path class="st0" d="M1102.9,359.4h26.1c.3,0,.7.4,1.1,1.1v76c0,15.8,8.6,25.7,25.9,29.5,2.4.2,4.7.4,6.9.4h.4c17.7,0,28.6-7.9,32.8-23.8.2-2.8.3-4.8.3-6.1v-76c0-.4.4-.7,1.2-1.1h24.7c.4,0,.8.4,1.2,1.1v71.9c0,25.6-11.6,43.7-34.8,54.2-8,3.3-16.7,5-26.3,5-25.8,0-44.4-11.3-55.8-34-3.3-6.6-5-17.9-5-34v-63.1c0-.4.4-.7,1.2-1.1Z"/>
    <g>
      <path class="st0" d="M1305.9,490.8h-.4c-10,.2-19.7-1.4-29.2-4.8-6.2-3-11.6-6.3-16.4-10.2,11.7,10.5,26.6,15.8,44.7,15.8s1.4-.3,1.5-.8h-.2Z"/>
      <path class="st0" d="M1265.5,422.9v6.3c0,13.9,6.1,24.5,18.3,31.8,6.5,3.2,14.5,4.7,24,4.6,16.9-.3,28.4-8.2,34.5-23.8,1.1,0,9.3,3.2,24.4,9.8v.4c0,.4-1.1,2.9-3.2,7.5-13.4,20.5-32.5,31-57.3,31.4h-.6c-10,.2-19.7-1.4-29.2-4.8-6.2-3-11.6-6.3-16.4-10.2-15.5-12.4-23.5-29.1-23.9-50.3-.1-7.7,1.3-16.4,4.4-26.1,12.1-26.9,32.8-40.6,61.9-41.1,1,0,1.5.3,1.5,1v.2c.5,0,1,0,1.5,0h.6c24.8,0,44,10.2,57.8,30.5,2.2,4.5,3.4,6.9,3.4,7.4v.4c-14.9,6.8-23,10.2-24.1,10.2-6.4-15.4-17.9-23.2-34.7-23.2-24,0-38.1,10.6-42.3,31.9-.3,2.2-.4,4.3-.4,6.4Z"/>
    </g>
    <path class="st0" d="M1442.9,360.5v129.1c-.4.7-.8,1.1-1.2,1.1h-26c-.8-.4-1.2-.7-1.2-1.1v-104.5h-43.5c-.8-.4-1.2-.7-1.2-1v-23.6c.4-.7.8-1.1,1.2-1.1h70.7c.8.4,1.2.7,1.2,1.1Z"/>
    <path class="st0" d="M1457.6,358.1h27.4c.4,0,.8.6,1.2,1.7v129.4c0,.6-.4,1.1-1.2,1.7h-27.4c-.4,0-.8-.6-1.2-1.7v-129.4c0-.6.4-1.1,1.2-1.7Z"/>
    <path class="st0" d="M1578.9,464c-1.8.7-5.3,1-10.5,1h-.4c-6.5,0-12.4-.9-17.7-2.8-16.6-7.3-24.8-19.1-24.8-35.6v-4.5c0-5.1,1-10.3,3-15.4-10.8-12.4-17-19.1-18.4-20.2h-.4c-7.8,11.4-11.7,23.8-11.7,37.3s1.9,19,5.6,27.9c13.8,25.6,35.3,38.4,64.4,38.4s20.9-1.9,29.8-5.6c-10.8-12.6-17.1-19.5-18.9-20.6Z"/>
    <path class="st0" d="M1568.6,383.5c5.3,0,10.4.6,15.3,1.8,18.9,7.1,28.3,19.4,28.3,36.9v4.5c0,4.3-.9,9.4-2.7,15.2v.4c11.1,12.4,17,19.1,17.6,20h.8c8.4-10.6,12.6-23.2,12.6-38s-3.1-22.5-9.2-33.1c-14.5-22-35.1-33.1-61.8-33.1s-21.2,1.8-29.8,5.3h-.4c0,.6,6,7.5,18,20.8,5.9-.5,9.7-.7,11.4-.7Z"/>
    <path class="st0" d="M1774.6,360.5v130.5c0,.4-.4.7-1.2,1.1h-24.5c-1.9,0-6.6-5.3-14-15.8-32.5-40.4-51.3-64.2-56.3-71.3v88.2c0,.5-.4,1.1-1.2,1.7h-26.1c-.4,0-.8-.5-1.2-1.7v-129.4c0-.5.4-1.1,1.2-1.6h26.1c.1,0,.2,0,.4.2,0,0,.1,0,.2,0,43.1,54.7,65.2,82.6,66.5,83.8h.4v-85.6c0-.4.4-.7,1.2-1.1h27.4c.4,0,.8.4,1.2,1.1Z"/>
  </g>
  <g>
    <polygon class="st0" points="249.5 61.5 249.4 61.9 249.3 61.4 249.5 61.5"/>
    <g>
      <polygon class="st0" points="249.2 61.4 249.3 61.4 249.3 61.4 249.2 61.4"/>
      <polygon class="st0" points="295.4 421.3 294.4 421.4 295.1 419 295.4 421.3"/>
    </g>
    <polygon class="st0" points="294.4 421.4 294.4 421.5 294.1 421.5 294.4 421.4"/>
    <path class="st0" d="M537.5,305.7c-6.8,41.2-23.2,77.8-48.8,108.9-29.2,35.4-66,59.7-109.3,72.2-20.4,5.9-41.4,8.9-62.5,8.9s-4.2,0-6.3,0h-.6c-11.5-.3-20.6-9.9-20.3-21.4.3-11.5,9.8-20.6,21.4-20.3h.7c18.9.5,37.7-1.9,56.1-7.2,35.1-10.2,65-29.9,88.8-58.7,20.9-25.3,34.3-55.3,39.8-89.1,2-11.9,2.8-23.2,2.8-33.3h-157l-47.1,153.4-.7,2.4h-.3s-34.7,4.5-34.7,4.5l-36.5-285-41,122.4v1h-64.1c.9,25.1,6.1,48.6,15.5,70.3,9.7,22.6,24.1,43.3,42.5,61.5,32,31.6,65.8,45.2,66.2,45.4,9.8,3.8,14.4,14.4,10.4,23.6-3,7-10.2,11.2-17.8,11.2s-4.9-.4-7.3-1.4c-1.6-.6-40.6-16-78.1-52.6-22.1-21.6-39.3-46.2-51-73-11.5-26.3-17.8-54.7-18.8-84.9-.2-7-.2-14.1.1-21.3h-.4v-21.3h78.4l57.6-171.8,34.1,11.5h.1s0,.5,0,.5l34.6,269.9,30.7-100.1v-2.4h181.8c-6-37.7-21.4-64.1-26.1-71.6-20.9-33-52.9-57.9-95.2-74-38.5-14.7-67-15.3-77.7-15.5-1.1,0-2.1,0-2.9,0-11.5-.4-20.5-10.1-20.1-21.6.4-11.5,10.1-20.5,21.5-20.1.6,0,1.4,0,2.3,0,12.7.2,46.5.9,91.7,18.2,50.8,19.5,89.7,50,115.4,90.7,7.7,12.2,26.4,45.7,32.9,92.9,2.4,17.7,4.2,45.5-1,77.4Z"/>
    <g>
      <line class="st0" x1="183.1" y1="243.1" x2="181.9" y2="243.1"/>
      <path class="st0" d="M79.4,264.4h-.2v-21.3h.4c-.3,7.2-.4,14.3-.1,21.3Z"/>
    </g>
  </g>
  <path class="st0" d="M1558.9,234.4l37.8,46.8-4.4,4.9c-27.9,25.3-61.3,38.2-99,38.2s-75.6-14.5-104.2-43c-28.6-28.5-43.1-63.6-43.1-104.1s14.5-75.3,43-103.9c28.6-28.7,63.6-43.2,104.2-43.2s71.1,12.9,99.1,38.4l5.6,6.8-36.2,47.4-11.9-9.3c-16.3-14.3-34.8-21.3-56.6-21.3s-43.5,8.2-60.4,24.9c-16.8,16.8-25,36.4-25,60.1s8.2,43.5,25,60.3c16.8,16.8,36.6,24.9,60.4,24.9s40.3-7,56.6-21.3l9-6.6Z"/>
  <polygon class="st0" points="1699.9 34.5 1775.1 35.1 1672.8 175 1774.3 316.1 1699.1 316.1 1595.9 175.4 1699.9 34.5"/>
  <path class="st0" d="M1834.2,352.7v-44.7h20.8c5.1,0,9.1,1.5,12,4.5,2.8,3,4.3,6.8,4.3,11.4s-.7,5.8-2,8.3c-1.3,2.4-3.3,4.4-5.8,5.7l10.2,14.8h-13l-7.3-13.5h-9.6s-.1,13.5-.1,13.5h-9.4ZM1843.6,329.6h10c5.5.1,8-.4,8-5.1s-2.4-5.7-8-5.7h-10c0,0,0,10.8,0,10.8Z"/>
  <path class="st0" d="M1852.1,377.4c-24.1,0-43.8-19.6-43.8-43.8s19.6-43.8,43.8-43.8,43.8,19.6,43.8,43.8-19.6,43.8-43.8,43.8ZM1852.1,293.2c-22.3,0-40.4,18.1-40.4,40.4s18.1,40.4,40.4,40.4,40.4-18.1,40.4-40.4-18.1-40.4-40.4-40.4Z"/>
</svg>