<?xml version="1.0" encoding="UTF-8"?>
<svg id="Layer_1" xmlns="http://www.w3.org/2000/svg" version="1.1" viewBox="0 0 1975 522.1">
  <!-- Generator: Adobe Illustrator 29.6.1, SVG Export Plug-In . SVG Version: 2.1.1 Build 9)  -->
  <defs>
    <style>
      .st0 {
        fill: #fff;
      }
    </style>
  </defs>
  <path class="st0" d="M915.1,31.8v231.5h146c1.7,1,2.5,1.8,2.5,2.5v52.5c-.8,1.6-1.7,2.5-2.5,2.5h-203.7c-1.7-.8-2.5-1.6-2.5-2.4V31.8c.8-1.6,1.7-2.4,2.5-2.4h55.4c1.5.8,2.3,1.6,2.3,2.4Z"/>
  <path class="st0" d="M1201,26.6h50.7c3.9,0,8.1,7.1,12.5,21.2,1.6,2.5,39.8,91.9,114.7,268.3-.4,2.2-2.5,3.3-6.3,3.3h-49.1c-4.3,0-9-8.4-14.1-25.3-9.4-21.2-37-87-82.8-197.5h-.8c-44.7,108.7-75.9,182.6-93.5,222l-3.9.8h-48.4c-2.9,0-5-.8-6.3-2.4,66.5-157.7,107.6-254.2,123.3-289.6l3.9-.8h.1Z"/>
  <path class="st0" d="M836,236.5c-7.3-48.3-22.4-49.7-46.5-68.7,14.7-17.1,32.4-35.2,32.4-56.1,0-37.5-20.7-63.6-62-78.2-12.2-3.7-25-5.5-38.5-5.5h-11.2c-.6-.2-.9-.3-1-.3l-119.5-1.1c-1.7.8-2.5,1.6-2.5,2.5v287.9c.8,1.6,1.7,2.5,2.5,2.5h55.4c.4-.2.7-.4,1-.6.3.2.7.4,1,.6h80.7c52.8,0,87.2-18.7,103-56.1,2.2-5.8,6.9-14.8,5.1-26.8h0ZM647.5,83.6l58.2.2c0,0,.2,0,.3.2h18.5c19.6,0,31.7,7.1,36.4,21.4v15.1c-3.3,16.8-14.6,25.2-33.9,25.2h-79.5v-62.1ZM776.4,236.6c-3.2,17-15.8,25.4-37.6,25.4h-91.2v-61.6h79.9c23.8,0,39.1,5.9,45.7,17.9,2.2,5.1,3.4,8.8,3.4,11.1v7.3h-.2Z"/>
  <path class="st0" d="M645.4,383.8l-.9,1.5h1.2c0-.5-.2-1-.2-1.5h0Z"/>
  <g>
    <g>
      <path class="st0" d="M592.7,361.5c-.4,0-.8.4-1.3,1.1v1.5c0-1.5,1-2.6,2.3-2.6h-1Z"/>
      <path class="st0" d="M659.5,361.9c-6.7-1-10.9-1.6-12.6-1.6,0,.1-.3.5-.8,1.2h-52.4c-1.3,0-2.3,1.2-2.3,2.6v133.5c0,.4.4.8,1.2,1.1h27.1c.3,0,.7-.4,1.1-1.1v-42.3h22.4c26.1,0,43.5-10.3,52.1-30.8,1.3-4.5,2.3-10,2.8-16.6,0-23.5-12.9-38.8-38.7-46h.1ZM668.5,408.5c0,13.4-8.4,20.2-25.2,20.2h-22.4v-40.6h27.2c.5,0,1-.2,1.3-.5,1.7.5,4.2,1,7.3,1.6,7.9,3.3,11.8,9.4,11.8,18.3v1.1h0Z"/>
    </g>
    <path class="st0" d="M814.3,498.8h-31.9c-1.1-.3-4.2-4.9-9.4-13.7-23.6-38.8-35.6-58.8-35.8-60v-.5h19.6c16.8,0,25.2-5.8,25.2-17.5v-1.1c0-3.1-.8-5.9-2.5-8.6-4-6.2-11.6-9.3-22.7-9.3h-21v107.6c0,.6-.4,1.1-1.3,1.7h-28.3c-.4,0-.8-.6-1.3-1.7v-132.5c0-.5.4-1.1,1.3-1.7h52.3c4.6,0,10.1.6,16.7,1.9,23.4,7.3,35.1,22,35.1,44.2s-1.7,13.3-5.1,21c-5.5,8.6-13.2,14.4-23.2,17.6v.7c21.5,33.8,32.3,51.1,32.3,51.9h0Z"/>
    <path class="st0" d="M897.6,471.1c-1.8.7-5.5,1-10.9,1h-.4c-6.8,0-12.9-1-18.3-2.9-17.1-7.5-25.7-19.8-25.7-36.8v-4.7c0-5.3,1-10.6,3.1-15.9-11.2-12.8-17.5-19.8-19-20.9h-.4c-8.1,11.8-12.1,24.7-12.1,38.6s1.9,19.7,5.8,28.9c14.3,26.5,36.5,39.8,66.7,39.8s21.6-1.9,30.8-5.8c-11.1-13-17.7-20.1-19.6-21.3h0Z"/>
    <path class="st0" d="M886.9,387.8c5.5,0,10.7.6,15.8,1.8,19.5,7.3,29.3,20.1,29.3,38.2v4.7c0,4.5-.9,9.7-2.8,15.7v.4c11.5,12.8,17.5,19.7,18.2,20.7h.8c8.7-11,13.1-24.1,13.1-39.3s-3.2-23.3-9.5-34.2c-15-22.8-36.3-34.2-63.9-34.2s-21.9,1.8-30.8,5.4h-.4c0,.6,6.2,7.8,18.6,21.5,6.1-.5,10-.8,11.8-.8h-.2Z"/>
    <path class="st0" d="M1053,367c-10-3.7-19.5-5.6-28.5-5.6h-47.9c-.8.6-1.2,1.1-1.2,1.7v133.9c.4,1.1.8,1.7,1.2,1.7h47.9c27.3,0,48-12.6,62.2-37.9,4.5-10.5,6.8-20.8,6.8-30.8,0-28-13.5-49-40.5-63h0ZM1063.6,433.5c0,15.3-7.5,27-22.5,35.3-4.7,2.2-10.5,3.4-17.2,3.4h-19.2v-84.1h18.8c20.1,0,33.1,10.3,39.3,30.9.5,3.1.8,5.7.8,7.9v6.7h0Z"/>
    <path class="st0" d="M1106.9,362.9h27c.3,0,.7.4,1.1,1.1v78.6c0,16.4,8.9,26.6,26.8,30.5,2.5.3,4.9.4,7.2.4h.4c18.3,0,29.6-8.2,34-24.6.2-2.9.3-5,.3-6.3v-78.6c0-.4.4-.8,1.2-1.1h25.5c.4,0,.8.4,1.2,1.1v74.4c0,26.5-12,45.2-36,56.1-8.2,3.4-17.3,5.2-27.3,5.2-26.7,0-46-11.7-57.7-35.2-3.4-6.8-5.1-18.5-5.1-35.2v-65.3c0-.4.4-.8,1.2-1.1h.2Z"/>
    <g>
      <path class="st0" d="M1317,498.8h-.4c-10.3.2-20.4-1.5-30.2-4.9-6.4-3.1-12-6.6-17-10.5,12.1,10.9,27.5,16.3,46.3,16.3s1.4-.3,1.5-.9h-.2Z"/>
      <path class="st0" d="M1275.2,428.5v6.5c0,14.4,6.3,25.4,18.9,32.9,6.7,3.3,15,4.9,24.8,4.7,17.5-.3,29.4-8.5,35.7-24.6,1.2,0,9.6,3.4,25.3,10.1v.4c0,.4-1.1,3-3.4,7.7-13.9,21.2-33.6,32.1-59.3,32.5h-.6c-10.3.2-20.4-1.5-30.2-4.9-6.4-3.1-12-6.6-17-10.5-16-12.8-24.3-30.2-24.7-52.1-.2-8,1.4-17,4.5-27.1,12.6-27.8,33.9-42,64-42.5,1,0,1.6.3,1.6,1v.2h2.1c25.6,0,45.5,10.5,59.8,31.5,2.3,4.6,3.5,7.2,3.5,7.6v.4c-15.5,7-23.8,10.5-24.9,10.5-6.6-16-18.6-24-36-24-24.9,0-39.4,11-43.8,33-.3,2.3-.4,4.5-.4,6.6h0Z"/>
    </g>
    <path class="st0" d="M1458.7,364v133.6c-.4.8-.8,1.1-1.3,1.1h-26.9c-.8-.4-1.2-.8-1.2-1.1v-108.1h-45c-.8-.4-1.2-.7-1.2-1v-24.4c.4-.8.8-1.1,1.2-1.1h73.2c.8.4,1.2.8,1.2,1.1h0Z"/>
    <path class="st0" d="M1474,361.5h28.3c.4,0,.8.6,1.2,1.7v133.9c0,.6-.4,1.1-1.2,1.7h-28.3c-.4,0-.8-.6-1.2-1.7v-133.9c0-.6.4-1.1,1.2-1.7Z"/>
    <path class="st0" d="M1599.5,471.1c-1.8.7-5.5,1-10.9,1h-.4c-6.8,0-12.9-1-18.3-2.9-17.1-7.5-25.7-19.8-25.7-36.8v-4.7c0-5.3,1-10.6,3.1-15.9-11.2-12.8-17.6-19.8-19-20.9h-.4c-8.1,11.8-12.1,24.7-12.1,38.6s1.9,19.7,5.8,28.9c14.3,26.5,36.5,39.8,66.7,39.8s21.6-1.9,30.8-5.8c-11.1-13-17.6-20.1-19.6-21.3h0Z"/>
    <path class="st0" d="M1588.8,387.8c5.5,0,10.7.6,15.8,1.8,19.5,7.3,29.3,20.1,29.3,38.2v4.7c0,4.5-.9,9.7-2.8,15.7v.4c11.5,12.8,17.6,19.7,18.2,20.7h.8c8.7-11,13.1-24.1,13.1-39.3s-3.2-23.3-9.6-34.2c-15-22.8-36.3-34.2-64-34.2s-21.9,1.8-30.8,5.4h-.4c0,.6,6.2,7.8,18.6,21.5,6.1-.5,10-.8,11.8-.8h0Z"/>
    <path class="st0" d="M1802,364v135c0,.4-.4.8-1.3,1.1h-25.4c-2,0-6.8-5.5-14.5-16.4-33.6-41.8-53.1-66.4-58.3-73.8v91.2c0,.6-.4,1.1-1.2,1.7h-27c-.4,0-.8-.6-1.2-1.7v-133.9c0-.6.4-1.1,1.2-1.7h27c0,0,.3,0,.4.2h.2c44.6,56.6,67.5,85.5,68.8,86.7h.4v-88.5c0-.4.4-.8,1.2-1.1h28.3c.4,0,.8.4,1.3,1.1h0Z"/>
  </g>
  <g>
    <polygon class="st0" points="223.8 54.6 223.7 54.9 223.6 54.5 223.8 54.6"/>
    <g>
      <polygon class="st0" points="223.5 54.5 223.6 54.4 223.6 54.5 223.5 54.5"/>
      <polygon class="st0" points="271.4 426.8 270.3 427 271.1 424.5 271.4 426.8"/>
    </g>
    <polygon class="st0" points="270.3 427 270.3 427.1 270 427 270.3 427"/>
    <path class="st0" d="M521.8,307.3c-7,42.6-24,80.5-50.5,112.7-30.3,36.6-68.3,61.8-113.1,74.7-21.1,6.1-42.9,9.2-64.7,9.2s-4.3,0-6.5,0h-.6c-11.9-.3-21.3-10.3-21-22.1.3-11.9,10.2-21.3,22.1-21h.7c19.5.6,39.1-1.9,58-7.4,36.3-10.5,67.3-31,91.9-60.8,21.6-26.2,35.5-57.2,41.2-92.1,2-12.4,2.8-24,2.9-34.5h-162.4l-48.7,158.7-.8,2.5h-.3l-35.9,4.7-37.8-294.9-42.4,126.7v1.1h-66.3c1,25.9,6.4,50.3,16,72.8,10.1,23.4,24.9,44.8,44,63.7,33.1,32.7,68.1,46.8,68.5,46.9,10.1,3.9,14.9,14.9,10.7,24.4-3.2,7.2-10.6,11.6-18.4,11.6s-5.1-.5-7.6-1.4c-1.7-.7-42-16.6-80.8-54.5-22.9-22.3-40.6-47.8-52.8-75.6-11.9-27.2-18.4-56.6-19.4-87.8-.3-7.3-.2-14.6.2-22h-.4v-22h81.1l59.6-177.8,35.3,11.9h.1v.5l35.8,279.3,31.8-103.5v-2.5h188.2c-6.3-39-22.1-66.3-27-74-21.6-34.1-54.7-59.9-98.5-76.6-39.8-15.3-69.3-15.8-80.4-16h-3c-11.9-.4-21.2-10.4-20.8-22.3.4-11.9,10.4-21.3,22.3-20.8h2.3c13.1.3,48.1.9,94.9,18.9,52.6,20.1,92.8,51.7,119.5,93.8,8,12.7,27.4,47.3,34,96.1,2.5,18.3,4.4,47.1-1.1,80.1v-.7Z"/>
    <g>
      <line class="st0" x1="155.2" y1="242.4" x2="153.9" y2="242.4"/>
      <path class="st0" d="M47.8,264.5h-.2v-22h.4c-.3,7.4-.4,14.8-.2,22Z"/>
    </g>
  </g>
  <path class="st0" d="M1578.8,233.5l39.2,48.4-4.5,5.1c-28.9,26.2-63.4,39.5-102.5,39.5s-78.3-15-107.8-44.5c-29.6-29.5-44.6-65.8-44.6-107.7s15-77.9,44.5-107.5c29.6-29.7,65.9-44.7,107.9-44.7s73.6,13.4,102.5,39.7l5.8,7-37.5,49.1-12.3-9.6c-16.8-14.8-36-22.1-58.5-22.1s-45,8.4-62.5,25.8c-17.4,17.3-25.9,37.7-25.9,62.2s8.5,45,25.9,62.4c17.4,17.4,37.9,25.8,62.5,25.8s41.7-7.2,58.5-22.1l9.3-6.9h0Z"/>
  <polygon class="st0" points="1724.7 26.6 1802.5 27.2 1696.6 172 1801.7 318 1723.9 318 1617 172.4 1724.7 26.6"/>
  <path class="st0" d="M1863.6,355.9v-46.2h21.5c5.3,0,9.5,1.6,12.4,4.7s4.4,7,4.4,11.8-.7,6-2.1,8.6c-1.4,2.5-3.4,4.5-6,5.9l10.6,15.3h-13.5l-7.5-14h-10v14h-9.8ZM1873.4,332h10.4c5.7.1,8.3-.4,8.3-5.3s-2.5-5.9-8.2-5.9h-10.4v11.2h-.1Z"/>
  <path class="st0" d="M1882.2,381.4c-25,0-45.3-20.3-45.3-45.3s20.3-45.3,45.3-45.3,45.3,20.3,45.3,45.3-20.3,45.3-45.3,45.3ZM1882.2,294.3c-23,0-41.8,18.7-41.8,41.8s18.7,41.8,41.8,41.8,41.8-18.7,41.8-41.8-18.7-41.8-41.8-41.8Z"/>
</svg>