<?xml version="1.0" encoding="UTF-8"?>
<svg id="Layer_1" xmlns="http://www.w3.org/2000/svg" version="1.1" viewBox="0 0 500 500">
  <!-- Generator: Adobe Illustrator 29.6.1, SVG Export Plug-In . SVG Version: 2.1.1 Build 9)  -->
  <defs>
    <style>
      .st0 {
        fill: #fff;
      }
    </style>
  </defs>
  <path class="st0" d="M351.9,315.7v37.5c-.6,1.2-1.2,1.8-1.8,1.8h-145.4c-1.2-.6-1.8-1.2-1.8-1.7v-204.5c.6-1.2,1.2-1.8,1.8-1.8h39.5c1.1.6,1.6,1.2,1.6,1.8v165.2h104.2c1.2.7,1.8,1.3,1.8,1.8h.1Z"/>
  <path class="st0" d="M189.5,294.8c-5.2-34.5-16-35.5-33.2-49,10.5-12.2,23.1-25.1,23.1-40,0-26.8-14.8-45.4-44.3-55.9-8.7-2.6-17.9-3.9-27.5-3.9h-8c-.4-.2-.6-.2-.7-.2l-85.3-.8c-1.2.6-1.8,1.2-1.8,1.8v205.5c.6,1.2,1.2,1.8,1.8,1.8h39.5c.3-.1.5-.3.7-.4.2.1.5.3.8.4h57.6c37.7,0,62.2-13.3,73.5-40,1.6-4.1,4.9-10.6,3.6-19.1l.2-.2ZM54.9,185.7l41.5.2s.2,0,.3.1h13.2c14,0,22.6,5.1,26,15.2v10.8c-2.4,12-10.5,18-24.2,18h-56.8s0-44.3,0-44.3ZM146.9,294.8c-2.3,12.1-11.3,18.2-26.9,18.2H54.9v-44h57c17,0,27.9,4.3,32.6,12.8,1.6,3.6,2.4,6.3,2.4,7.9v5.2h0Z"/>
  <polygon class="st0" points="411.3 249.8 487.5 355.7 431 355.7 353.5 250.1 431.6 144.3 488.1 144.7 411.3 249.8"/>
</svg>