<?xml version="1.0" encoding="UTF-8"?>
<svg id="Layer_1" xmlns="http://www.w3.org/2000/svg" version="1.1" viewBox="0 0 500 500">
  <!-- Generator: Adobe Illustrator 29.6.1, SVG Export Plug-In . SVG Version: 2.1.1 Build 9)  -->
  <defs>
    <style>
      .st0 {
        fill: none;
      }

      .st1 {
        fill: #3a3a3a;
      }

      .st2 {
        fill: #fff;
      }
    </style>
  </defs>
  <g>
    <polygon class="st1" points="168.7 60.7 166.3 67.8 165.4 61.1 168.7 60.7"/>
    <g>
      <polygon class="st1" points="165.4 61.1 168.7 60.7 166.3 67.8 165.4 61.1"/>
      <polygon class="st1" points="187.8 45 187.7 45.4 187.7 45 187.8 45"/>
    </g>
  </g>
  <g>
    <polygon class="st1" points="168.7 60.7 166.3 67.8 165.4 61.1 168.7 60.7"/>
    <g>
      <polygon class="st1" points="165.4 61.1 168.7 60.7 166.3 67.8 165.4 61.1"/>
      <polygon class="st1" points="187.7 44.9 187.7 45 187.6 44.9 187.7 44.9"/>
      <polygon class="st1" points="235 414.6 234 414.7 234.7 412.3 235 414.6"/>
    </g>
  </g>
  <polygon class="st1" points="234 414.7 233.9 414.8 233.7 414.8 234 414.7"/>
  <path class="st2" d="M484.7,216.3c-6.6-48.5-25.8-82.9-33.8-95.4-26.5-41.8-66.4-73.1-118.6-93.1-46.5-17.8-81.2-18.5-94.2-18.7h-2.3c-11.8-.4-21.7,8.8-22.1,20.7-.4,11.8,8.8,21.7,20.6,22.2h3c11,.2,40.3.8,79.8,15.9,43.4,16.6,76.3,42.2,97.7,76.1,4.8,7.6,20.6,34.8,26.8,73.5h-186.8v2.4l-31.6,102.8L187.7,45.4v-.4h-.2l-35.1-11.8-59.1,176.5H12.9v21.9h.4c-.4,7.4-.4,14.7-.2,21.9,1,31,7.5,60.2,19.3,87.2,12.1,27.6,29.7,52.9,52.4,75,38.5,37.6,78.5,53.4,80.2,54.1,2.5,1,5,1.4,7.5,1.4,7.8,0,15.1-4.3,18.2-11.5,4.2-9.5-.6-20.3-10.7-24.2-.3-.1-35.1-14.1-68-46.6-19-18.8-33.7-40-43.7-63.2-9.6-22.3-15-46.5-15.9-72.2h65.8v-1.1l42.1-125.8,37.5,292.8,35.6-4.6h.3l.8-2.5,48.4-157.6h161.2c0,10.4-.9,22-2.9,34.2-5.7,34.7-19.5,65.5-40.9,91.5-24.4,29.6-55.1,49.9-91.2,60.3-18.8,5.4-38.2,7.9-57.6,7.4h-.7c-11.8-.3-21.6,9-21.9,20.8-.3,11.8,9,21.7,20.8,22h7c21.6,0,43.2-3.1,64.2-9.1,44.5-12.9,82.3-37.8,112.3-74.2,26.4-31.9,43.2-69.5,50.2-111.8,5.4-32.8,3.5-61.3,1.1-79.5h.2ZM166.3,67.8l-.8-6.7,3.2-.4-2.4,7.1Z"/>
  <g>
    <line class="st0" x1="119.7" y1="231.5" x2="118.4" y2="231.5"/>
    <path class="st1" d="M13.1,253.4h-.2v-21.9h.4c-.4,7.4-.4,14.7-.2,21.9Z"/>
  </g>
</svg>